<mxfile host="drawio-plugin" modified="2021-03-07T12:06:19.194Z" agent="5.0 (Windows NT 6.2; Win64; x64) AppleWebKit/537.36 (KHTML, like Gecko) Chrome/84.0.4147.105 Safari/537.36" etag="hKhHE5P2OBeejUOBLl-z" version="13.7.9" type="embed"><diagram id="LMRgBZ4KX8tI2kqlJ1hC" name="Page-1"><mxGraphModel dx="1038" dy="721" grid="1" gridSize="10" guides="1" tooltips="1" connect="1" arrows="1" fold="1" page="1" pageScale="1" pageWidth="2336" pageHeight="1654" background="none" math="0" shadow="0"><root><mxCell id="0"/><mxCell id="1" parent="0"/><mxCell id="ZLy822PfVIKRX5vYNm9j-60" value="" style="rounded=1;whiteSpace=wrap;html=1;strokeWidth=2;strokeColor=#82b366;arcSize=4;imageAspect=0;fillColor=none;" parent="1" vertex="1"><mxGeometry x="990" y="40" width="570" height="240" as="geometry"/></mxCell><mxCell id="ZLy822PfVIKRX5vYNm9j-58" value="" style="rounded=1;whiteSpace=wrap;html=1;strokeWidth=2;arcSize=2;imageAspect=0;strokeColor=#6c8ebf;fillColor=none;" parent="1" vertex="1"><mxGeometry x="60" y="480" width="660" height="660" as="geometry"/></mxCell><mxCell id="ZLy822PfVIKRX5vYNm9j-56" value="" style="rounded=1;whiteSpace=wrap;html=1;strokeWidth=2;strokeColor=#6c8ebf;arcSize=4;imageAspect=0;fillColor=none;" parent="1" vertex="1"><mxGeometry x="820" y="480" width="520" height="320" as="geometry"/></mxCell><mxCell id="ZLy822PfVIKRX5vYNm9j-4" style="edgeStyle=orthogonalEdgeStyle;rounded=0;orthogonalLoop=1;jettySize=auto;html=1;exitX=0.5;exitY=1;exitDx=0;exitDy=0;entryX=0.5;entryY=0;entryDx=0;entryDy=0;" parent="1" source="ZLy822PfVIKRX5vYNm9j-1" target="ZLy822PfVIKRX5vYNm9j-2" edge="1"><mxGeometry relative="1" as="geometry"/></mxCell><mxCell id="ZLy822PfVIKRX5vYNm9j-1" value="TranslatePipe" style="rounded=0;whiteSpace=wrap;html=1;" parent="1" vertex="1"><mxGeometry x="1400" y="100" width="140" height="60" as="geometry"/></mxCell><mxCell id="ZLy822PfVIKRX5vYNm9j-7" style="edgeStyle=orthogonalEdgeStyle;rounded=0;orthogonalLoop=1;jettySize=auto;html=1;exitX=0;exitY=0.5;exitDx=0;exitDy=0;entryX=0.5;entryY=0;entryDx=0;entryDy=0;" parent="1" source="ZLy822PfVIKRX5vYNm9j-2" target="ZLy822PfVIKRX5vYNm9j-5" edge="1"><mxGeometry relative="1" as="geometry"/></mxCell><mxCell id="ZLy822PfVIKRX5vYNm9j-75" style="edgeStyle=orthogonalEdgeStyle;rounded=0;orthogonalLoop=1;jettySize=auto;html=1;exitX=0.5;exitY=1;exitDx=0;exitDy=0;entryX=0.5;entryY=0;entryDx=0;entryDy=0;strokeWidth=1;" parent="1" source="ZLy822PfVIKRX5vYNm9j-2" target="ZLy822PfVIKRX5vYNm9j-6" edge="1"><mxGeometry relative="1" as="geometry"/></mxCell><mxCell id="ZLy822PfVIKRX5vYNm9j-77" style="edgeStyle=orthogonalEdgeStyle;rounded=0;orthogonalLoop=1;jettySize=auto;html=1;exitX=1;exitY=0.5;exitDx=0;exitDy=0;entryX=0.5;entryY=0;entryDx=0;entryDy=0;strokeColor=#000000;strokeWidth=1;" parent="1" source="ZLy822PfVIKRX5vYNm9j-2" target="ZLy822PfVIKRX5vYNm9j-76" edge="1"><mxGeometry relative="1" as="geometry"/></mxCell><mxCell id="ZLy822PfVIKRX5vYNm9j-2" value="ITranslateService" style="rounded=0;whiteSpace=wrap;html=1;" parent="1" vertex="1"><mxGeometry x="1400" y="200" width="140" height="60" as="geometry"/></mxCell><mxCell id="ZLy822PfVIKRX5vYNm9j-15" style="edgeStyle=orthogonalEdgeStyle;rounded=0;orthogonalLoop=1;jettySize=auto;html=1;exitX=0;exitY=0.5;exitDx=0;exitDy=0;" parent="1" source="ZLy822PfVIKRX5vYNm9j-3" target="ZLy822PfVIKRX5vYNm9j-10" edge="1"><mxGeometry relative="1" as="geometry"/></mxCell><mxCell id="ZLy822PfVIKRX5vYNm9j-16" style="edgeStyle=orthogonalEdgeStyle;rounded=0;orthogonalLoop=1;jettySize=auto;html=1;exitX=0;exitY=0.75;exitDx=0;exitDy=0;" parent="1" source="ZLy822PfVIKRX5vYNm9j-3" target="ZLy822PfVIKRX5vYNm9j-11" edge="1"><mxGeometry relative="1" as="geometry"/></mxCell><mxCell id="ZLy822PfVIKRX5vYNm9j-17" style="edgeStyle=orthogonalEdgeStyle;rounded=0;orthogonalLoop=1;jettySize=auto;html=1;exitX=0.5;exitY=1;exitDx=0;exitDy=0;" parent="1" source="ZLy822PfVIKRX5vYNm9j-3" target="ZLy822PfVIKRX5vYNm9j-12" edge="1"><mxGeometry relative="1" as="geometry"/></mxCell><mxCell id="ZLy822PfVIKRX5vYNm9j-3" value="RootTranslateStore" style="rounded=0;whiteSpace=wrap;html=1;" parent="1" vertex="1"><mxGeometry x="1180" y="400" width="140" height="60" as="geometry"/></mxCell><mxCell id="ZLy822PfVIKRX5vYNm9j-9" style="edgeStyle=orthogonalEdgeStyle;rounded=0;orthogonalLoop=1;jettySize=auto;html=1;exitX=0.5;exitY=1;exitDx=0;exitDy=0;" parent="1" source="ZLy822PfVIKRX5vYNm9j-5" target="ZLy822PfVIKRX5vYNm9j-3" edge="1"><mxGeometry relative="1" as="geometry"/></mxCell><mxCell id="ZLy822PfVIKRX5vYNm9j-5" value="RootTranslateService" style="rounded=0;whiteSpace=wrap;html=1;" parent="1" vertex="1"><mxGeometry x="1180" y="300" width="140" height="60" as="geometry"/></mxCell><mxCell id="ZLy822PfVIKRX5vYNm9j-6" value="FakeTranslateService" style="rounded=0;whiteSpace=wrap;html=1;" parent="1" vertex="1"><mxGeometry x="1400" y="300" width="140" height="60" as="geometry"/></mxCell><mxCell id="ZLy822PfVIKRX5vYNm9j-10" value="BundleRegistry" style="rounded=0;whiteSpace=wrap;html=1;" parent="1" vertex="1"><mxGeometry x="80" y="700" width="140" height="60" as="geometry"/></mxCell><mxCell id="ZLy822PfVIKRX5vYNm9j-21" style="edgeStyle=orthogonalEdgeStyle;rounded=0;orthogonalLoop=1;jettySize=auto;html=1;exitX=0.5;exitY=1;exitDx=0;exitDy=0;entryX=0.5;entryY=0;entryDx=0;entryDy=0;" parent="1" source="ZLy822PfVIKRX5vYNm9j-11" target="ZLy822PfVIKRX5vYNm9j-18" edge="1"><mxGeometry relative="1" as="geometry"/></mxCell><mxCell id="ZLy822PfVIKRX5vYNm9j-11" value="BundleCollectionStore" style="rounded=0;whiteSpace=wrap;html=1;" parent="1" vertex="1"><mxGeometry x="560" y="500" width="140" height="60" as="geometry"/></mxCell><mxCell id="ZLy822PfVIKRX5vYNm9j-39" style="edgeStyle=orthogonalEdgeStyle;rounded=0;orthogonalLoop=1;jettySize=auto;html=1;exitX=0.5;exitY=1;exitDx=0;exitDy=0;entryX=0.5;entryY=0;entryDx=0;entryDy=0;" parent="1" source="ZLy822PfVIKRX5vYNm9j-12" target="ZLy822PfVIKRX5vYNm9j-38" edge="1"><mxGeometry relative="1" as="geometry"/></mxCell><mxCell id="ZLy822PfVIKRX5vYNm9j-46" style="edgeStyle=orthogonalEdgeStyle;rounded=0;orthogonalLoop=1;jettySize=auto;html=1;exitX=0;exitY=0.5;exitDx=0;exitDy=0;entryX=0.5;entryY=0;entryDx=0;entryDy=0;" parent="1" source="ZLy822PfVIKRX5vYNm9j-12" target="ZLy822PfVIKRX5vYNm9j-40" edge="1"><mxGeometry relative="1" as="geometry"/></mxCell><mxCell id="ZLy822PfVIKRX5vYNm9j-47" style="edgeStyle=orthogonalEdgeStyle;rounded=0;orthogonalLoop=1;jettySize=auto;html=1;exitX=0;exitY=0.75;exitDx=0;exitDy=0;entryX=0.5;entryY=0;entryDx=0;entryDy=0;" parent="1" source="ZLy822PfVIKRX5vYNm9j-12" target="ZLy822PfVIKRX5vYNm9j-43" edge="1"><mxGeometry relative="1" as="geometry"/></mxCell><mxCell id="ZLy822PfVIKRX5vYNm9j-12" value="LanguageStore" style="rounded=0;whiteSpace=wrap;html=1;" parent="1" vertex="1"><mxGeometry x="1180" y="500" width="140" height="60" as="geometry"/></mxCell><mxCell id="ZLy822PfVIKRX5vYNm9j-23" style="edgeStyle=orthogonalEdgeStyle;rounded=0;orthogonalLoop=1;jettySize=auto;html=1;exitX=0;exitY=0.75;exitDx=0;exitDy=0;entryX=0.5;entryY=0;entryDx=0;entryDy=0;" parent="1" source="ZLy822PfVIKRX5vYNm9j-18" target="ZLy822PfVIKRX5vYNm9j-20" edge="1"><mxGeometry relative="1" as="geometry"/></mxCell><mxCell id="ZLy822PfVIKRX5vYNm9j-29" style="edgeStyle=orthogonalEdgeStyle;rounded=0;orthogonalLoop=1;jettySize=auto;html=1;exitX=0;exitY=0.25;exitDx=0;exitDy=0;entryX=0.75;entryY=0;entryDx=0;entryDy=0;" parent="1" source="ZLy822PfVIKRX5vYNm9j-18" target="ZLy822PfVIKRX5vYNm9j-10" edge="1"><mxGeometry relative="1" as="geometry"/></mxCell><mxCell id="ZLy822PfVIKRX5vYNm9j-30" style="edgeStyle=orthogonalEdgeStyle;rounded=0;orthogonalLoop=1;jettySize=auto;html=1;exitX=0;exitY=0.5;exitDx=0;exitDy=0;entryX=0.5;entryY=0;entryDx=0;entryDy=0;" parent="1" source="ZLy822PfVIKRX5vYNm9j-18" target="ZLy822PfVIKRX5vYNm9j-28" edge="1"><mxGeometry relative="1" as="geometry"/></mxCell><mxCell id="ZLy822PfVIKRX5vYNm9j-31" style="edgeStyle=orthogonalEdgeStyle;rounded=0;orthogonalLoop=1;jettySize=auto;html=1;exitX=0.5;exitY=1;exitDx=0;exitDy=0;entryX=0.5;entryY=0;entryDx=0;entryDy=0;" parent="1" source="ZLy822PfVIKRX5vYNm9j-18" target="ZLy822PfVIKRX5vYNm9j-19" edge="1"><mxGeometry relative="1" as="geometry"/></mxCell><mxCell id="ZLy822PfVIKRX5vYNm9j-18" value="BundleSource" style="rounded=0;whiteSpace=wrap;html=1;" parent="1" vertex="1"><mxGeometry x="560" y="600" width="140" height="60" as="geometry"/></mxCell><mxCell id="ZLy822PfVIKRX5vYNm9j-19" value="BundleRepository" style="rounded=0;whiteSpace=wrap;html=1;fillColor=#d5e8d4;strokeColor=#82b366;" parent="1" vertex="1"><mxGeometry x="560" y="700" width="140" height="60" as="geometry"/></mxCell><mxCell id="ZLy822PfVIKRX5vYNm9j-20" value="MIssingBundleHandler" style="rounded=0;whiteSpace=wrap;html=1;fillColor=#d5e8d4;strokeColor=#82b366;" parent="1" vertex="1"><mxGeometry x="400" y="700" width="140" height="60" as="geometry"/></mxCell><mxCell id="ZLy822PfVIKRX5vYNm9j-33" style="edgeStyle=orthogonalEdgeStyle;rounded=0;orthogonalLoop=1;jettySize=auto;html=1;exitX=0.5;exitY=1;exitDx=0;exitDy=0;entryX=0.5;entryY=0;entryDx=0;entryDy=0;" parent="1" source="ZLy822PfVIKRX5vYNm9j-28" target="ZLy822PfVIKRX5vYNm9j-32" edge="1"><mxGeometry relative="1" as="geometry"/></mxCell><mxCell id="ZLy822PfVIKRX5vYNm9j-28" value="BundleCompiler" style="rounded=0;whiteSpace=wrap;html=1;" parent="1" vertex="1"><mxGeometry x="240" y="700" width="140" height="60" as="geometry"/></mxCell><mxCell id="ZLy822PfVIKRX5vYNm9j-35" style="edgeStyle=orthogonalEdgeStyle;rounded=0;orthogonalLoop=1;jettySize=auto;html=1;exitX=0.5;exitY=1;exitDx=0;exitDy=0;entryX=0.5;entryY=0;entryDx=0;entryDy=0;" parent="1" source="ZLy822PfVIKRX5vYNm9j-32" target="ZLy822PfVIKRX5vYNm9j-34" edge="1"><mxGeometry relative="1" as="geometry"/></mxCell><mxCell id="ZLy822PfVIKRX5vYNm9j-32" value="PhraseCompiler" style="rounded=0;whiteSpace=wrap;html=1;" parent="1" vertex="1"><mxGeometry x="240" y="800" width="140" height="60" as="geometry"/></mxCell><mxCell id="ZLy822PfVIKRX5vYNm9j-37" style="edgeStyle=orthogonalEdgeStyle;rounded=0;orthogonalLoop=1;jettySize=auto;html=1;exitX=0.5;exitY=1;exitDx=0;exitDy=0;entryX=0.5;entryY=0;entryDx=0;entryDy=0;" parent="1" source="ZLy822PfVIKRX5vYNm9j-34" target="ZLy822PfVIKRX5vYNm9j-36" edge="1"><mxGeometry relative="1" as="geometry"/></mxCell><mxCell id="ZLy822PfVIKRX5vYNm9j-34" value="PredicateCompiler" style="rounded=0;whiteSpace=wrap;html=1;" parent="1" vertex="1"><mxGeometry x="240" y="900" width="140" height="60" as="geometry"/></mxCell><mxCell id="ZLy822PfVIKRX5vYNm9j-36" value="OperatorCompiler" style="rounded=0;whiteSpace=wrap;html=1;" parent="1" vertex="1"><mxGeometry x="240" y="1000" width="140" height="60" as="geometry"/></mxCell><mxCell id="ZLy822PfVIKRX5vYNm9j-38" value="LanguageSource" style="rounded=0;whiteSpace=wrap;html=1;fillColor=#d5e8d4;strokeColor=#82b366;" parent="1" vertex="1"><mxGeometry x="1180" y="600" width="140" height="60" as="geometry"/></mxCell><mxCell id="ZLy822PfVIKRX5vYNm9j-40" value="LanguageResolver" style="rounded=0;whiteSpace=wrap;html=1;" parent="1" vertex="1"><mxGeometry x="840" y="600" width="140" height="60" as="geometry"/></mxCell><mxCell id="ZLy822PfVIKRX5vYNm9j-43" value="LanguageChangeHandler" style="rounded=0;whiteSpace=wrap;html=1;fillColor=#d5e8d4;strokeColor=#82b366;" parent="1" vertex="1"><mxGeometry x="1000" y="600" width="160" height="60" as="geometry"/></mxCell><mxCell id="ZLy822PfVIKRX5vYNm9j-53" style="edgeStyle=orthogonalEdgeStyle;rounded=0;orthogonalLoop=1;jettySize=auto;html=1;exitX=0.5;exitY=1;exitDx=0;exitDy=0;entryX=0;entryY=0.25;entryDx=0;entryDy=0;" parent="1" source="ZLy822PfVIKRX5vYNm9j-49" target="ZLy822PfVIKRX5vYNm9j-12" edge="1"><mxGeometry relative="1" as="geometry"/></mxCell><mxCell id="ZLy822PfVIKRX5vYNm9j-49" value="ActiveLanguage" style="rounded=0;whiteSpace=wrap;html=1;" parent="1" vertex="1"><mxGeometry x="1010" y="200" width="140" height="60" as="geometry"/></mxCell><mxCell id="ZLy822PfVIKRX5vYNm9j-57" value="Language subsystem" style="text;html=1;align=center;verticalAlign=middle;whiteSpace=wrap;rounded=0;fontStyle=1" parent="1" vertex="1"><mxGeometry x="1180" y="760" width="150" height="40" as="geometry"/></mxCell><mxCell id="ZLy822PfVIKRX5vYNm9j-59" value="Bundle subsystem" style="text;html=1;align=center;verticalAlign=middle;whiteSpace=wrap;rounded=0;fontStyle=1" parent="1" vertex="1"><mxGeometry x="570" y="1100" width="135" height="40" as="geometry"/></mxCell><mxCell id="ZLy822PfVIKRX5vYNm9j-62" value="Public API" style="text;html=1;align=center;verticalAlign=middle;whiteSpace=wrap;rounded=0;fontStyle=1" parent="1" vertex="1"><mxGeometry x="1000" y="40" width="90" height="40" as="geometry"/></mxCell><mxCell id="ZLy822PfVIKRX5vYNm9j-63" value="" style="rounded=1;whiteSpace=wrap;html=1;strokeWidth=2;strokeColor=#82b366;arcSize=4;imageAspect=0;fillColor=none;" parent="1" vertex="1"><mxGeometry x="540" y="40" width="280" height="240" as="geometry"/></mxCell><mxCell id="ZLy822PfVIKRX5vYNm9j-68" style="edgeStyle=orthogonalEdgeStyle;rounded=0;orthogonalLoop=1;jettySize=auto;html=1;exitX=1;exitY=0.5;exitDx=0;exitDy=0;entryX=0.5;entryY=1;entryDx=0;entryDy=0;dashed=1;strokeWidth=2;strokeColor=#009900;" parent="1" source="ZLy822PfVIKRX5vYNm9j-64" target="ZLy822PfVIKRX5vYNm9j-43" edge="1"><mxGeometry relative="1" as="geometry"><Array as="points"><mxPoint x="800" y="230"/><mxPoint x="800" y="680"/><mxPoint x="1080" y="680"/></Array></mxGeometry></mxCell><mxCell id="ZLy822PfVIKRX5vYNm9j-69" style="edgeStyle=orthogonalEdgeStyle;rounded=0;orthogonalLoop=1;jettySize=auto;html=1;exitX=1;exitY=0.75;exitDx=0;exitDy=0;entryX=0.5;entryY=1;entryDx=0;entryDy=0;strokeColor=#009900;strokeWidth=2;dashed=1;" parent="1" source="ZLy822PfVIKRX5vYNm9j-64" target="ZLy822PfVIKRX5vYNm9j-38" edge="1"><mxGeometry relative="1" as="geometry"><Array as="points"><mxPoint x="780" y="245"/><mxPoint x="780" y="700"/><mxPoint x="1250" y="700"/></Array></mxGeometry></mxCell><mxCell id="ZLy822PfVIKRX5vYNm9j-72" style="edgeStyle=orthogonalEdgeStyle;rounded=0;orthogonalLoop=1;jettySize=auto;html=1;exitX=0.75;exitY=1;exitDx=0;exitDy=0;entryX=0.5;entryY=1;entryDx=0;entryDy=0;strokeColor=#009900;dashed=1;strokeWidth=2;" parent="1" source="ZLy822PfVIKRX5vYNm9j-64" target="ZLy822PfVIKRX5vYNm9j-20" edge="1"><mxGeometry relative="1" as="geometry"><Array as="points"><mxPoint x="665" y="300"/><mxPoint x="760" y="300"/><mxPoint x="760" y="800"/><mxPoint x="470" y="800"/></Array></mxGeometry></mxCell><mxCell id="ZLy822PfVIKRX5vYNm9j-73" style="edgeStyle=orthogonalEdgeStyle;rounded=0;orthogonalLoop=1;jettySize=auto;html=1;exitX=0.5;exitY=1;exitDx=0;exitDy=0;entryX=0.5;entryY=1;entryDx=0;entryDy=0;strokeColor=#009900;dashed=1;strokeWidth=2;" parent="1" source="ZLy822PfVIKRX5vYNm9j-64" target="ZLy822PfVIKRX5vYNm9j-19" edge="1"><mxGeometry relative="1" as="geometry"><Array as="points"><mxPoint x="630" y="320"/><mxPoint x="740" y="320"/><mxPoint x="740" y="780"/><mxPoint x="630" y="780"/></Array></mxGeometry></mxCell><mxCell id="ZLy822PfVIKRX5vYNm9j-64" value="RootConfiguration" style="rounded=0;whiteSpace=wrap;html=1;strokeWidth=1;fillColor=#d5e8d4;strokeColor=#82b366;" parent="1" vertex="1"><mxGeometry x="560" y="200" width="140" height="60" as="geometry"/></mxCell><mxCell id="ZLy822PfVIKRX5vYNm9j-65" value="External configuration" style="text;html=1;align=center;verticalAlign=middle;whiteSpace=wrap;rounded=0;fontStyle=1" parent="1" vertex="1"><mxGeometry x="550" y="40" width="160" height="40" as="geometry"/></mxCell><mxCell id="ZLy822PfVIKRX5vYNm9j-70" value="LanguageResolver" style="rounded=0;whiteSpace=wrap;html=1;" parent="1" vertex="1"><mxGeometry x="840" y="600" width="140" height="60" as="geometry"/></mxCell><mxCell id="ZLy822PfVIKRX5vYNm9j-71" value="LanguageResolver" style="rounded=0;whiteSpace=wrap;html=1;" parent="1" vertex="1"><mxGeometry x="840" y="600" width="140" height="60" as="geometry"/></mxCell><mxCell id="ZLy822PfVIKRX5vYNm9j-76" value="InlineTranslateService" style="rounded=0;whiteSpace=wrap;html=1;strokeColor=#d6b656;strokeWidth=1;fillColor=#fff2cc;" parent="1" vertex="1"><mxGeometry x="1620" y="300" width="140" height="60" as="geometry"/></mxCell></root></mxGraphModel></diagram></mxfile>